# xmcd
#
# Track frame offsets:
#         150
#       20150
#       41725
#       63875
#       83075
#      106662
#      124252
#      146222
#      163125
#      183557
#      207250
#      234280
#      250887
#      268205
#
# Disc length:   3828 seconds
#
# Revision:        7
# Processed by: cddbd v1.5.2PL0 Copyright (c) Steve Scherf et al.
# Submitted via: libcddb 1.3.2
#
DISCID=ca0ef20e
DTITLE=新井英一 - オールドファッション・ラヴソング
DYEAR=1997
DGENRE=blues
TTITLE0=遠くへ行きたい
TTITLE1=黒の舟唄
TTITLE2=かもめ
TTITLE3=流浪の旅
TTITLE4=ゴンドラの唄
TTITLE5=石狩挽歌
TTITLE6=ヨイトマケの唄
TTITLE7=硝子のジョニー
TTITLE8=ともしび
TTITLE9=イムジン江
TTITLE10=明日は明日の風が吹く
TTITLE11=港が見える丘
TTITLE12=人を恋うる歌
TTITLE13=青空 (MY BLUE HEAVEN)
EXTD=
EXTT0=
EXTT1=
EXTT2=
EXTT3=
EXTT4=
EXTT5=
EXTT6=
EXTT7=
EXTT8=
EXTT9=
EXTT10=
EXTT11=
EXTT12=
EXTT13=
PLAYORDER=
